<?xml version="1.0" encoding="UTF-8" standalone="no"?>
<svg
   xmlns:dc="http://purl.org/dc/elements/1.1/"
   xmlns:cc="http://creativecommons.org/ns#"
   xmlns:rdf="http://www.w3.org/1999/02/22-rdf-syntax-ns#"
   xmlns:svg="http://www.w3.org/2000/svg"
   xmlns="http://www.w3.org/2000/svg"
   viewBox="0 0 677.33331 98.666664"
   height="98.666664"
   width="677.33331"
   xml:space="preserve"
   id="svg2"
   version="1.1"><metadata
     id="metadata8"><rdf:RDF><cc:Work
         rdf:about=""><dc:format>image/svg+xml</dc:format><dc:type
           rdf:resource="http://purl.org/dc/dcmitype/StillImage" /></cc:Work></rdf:RDF></metadata><defs
     id="defs6" /><g
     transform="matrix(1.3333333,0,0,-1.3333333,0,98.666667)"
     id="g10"><g
       transform="scale(0.1)"
       id="g12"><path
         id="path14"
         style="fill:#ffffff;fill-opacity:1;fill-rule:nonzero;stroke:none"
         d="M 3.39453,404.77 H 35.3945 V 582.742 H 3.39453 V 638.73 H 138.973 v -55.988 h -32 V 408.77 h 61.601 v 41.992 h 59.992 V 352.781 H 3.39453 v 51.989" /><path
         id="path16"
         style="fill:#ffffff;fill-opacity:1;fill-rule:nonzero;stroke:none"
         d="m 406.566,497.152 -14.8,52.793 c -2.801,9.2 -3.2,16.399 -4.403,21.598 l -1.199,8.398 h -1.598 c 0,-2.796 -0.402,-5.597 -0.804,-8.398 -1.199,-5.199 -1.989,-12.398 -4.797,-21.598 l -15.192,-52.793 z m -163.57,-92.379 h 23.59 l 77.988,233.961 h 81.582 l 77.989,-233.961 h 23.597 v -52 H 408.164 v 52 h 24.801 l -10.801,37.989 h -73.59 l -10.801,-37.989 h 24.801 v -52 H 242.996 v 52" /><path
         id="path18"
         style="fill:#ffffff;fill-opacity:1;fill-rule:nonzero;stroke:none"
         d="m 583.375,404.77 h 32 v 177.972 h -34 v -40.39 h -59.988 v 96.378 h 259.558 v -96.378 h -59.988 v 40.39 H 686.953 V 404.77 h 32 V 352.781 H 583.375 v 51.989" /><path
         id="path20"
         style="fill:#ffffff;fill-opacity:1;fill-rule:nonzero;stroke:none"
         d="m 938.16,497.152 -14.801,52.793 c -2.8,9.2 -3.199,16.399 -4.398,21.598 l -1.203,8.398 h -1.598 c 0,-2.796 -0.398,-5.597 -0.797,-8.398 -1.203,-5.199 -1.992,-12.398 -4.804,-21.598 L 895.371,497.152 Z M 774.59,404.773 h 23.59 l 77.988,233.961 h 81.582 l 77.99,-233.961 h 23.6 v -52 H 939.758 v 52 h 24.801 l -10.801,37.989 h -73.59 l -10.801,-37.989 h 24.801 v -52 H 774.59 v 52" /><path
         id="path22"
         style="fill:#ffffff;fill-opacity:1;fill-rule:nonzero;stroke:none"
         d="m 1218.96,509.152 c 22.39,0 36.39,11.2 36.39,37.2 0,13.199 -3.2,25.589 -15.59,31.589 -6.41,3.2 -15.6,4.801 -27.6,4.801 h -25.6 v -73.59 z M 1082.98,404.77 h 32 v 181.972 h -32 v 51.988 h 129.18 c 22,0 40.79,-0.8 57.19,-5.597 34.8,-10.801 57.19,-38.395 57.19,-80.391 0,-37.992 -17.6,-62.781 -46.39,-78.383 v -0.796 c 2,-1.2 4.4,-2.403 6.4,-4 3.6,-2.801 8,-6.801 11.19,-13.204 l 22,-42.386 c 3.6,-6.801 9.2,-9.203 18.4,-9.203 h 9.99 v -51.989 h -47.19 c -22.79,0 -32.39,5.602 -40.39,21.192 l -34.79,66.789 c -4.8,9.199 -10,12.398 -24.8,12.398 h -14.4 v -48.39 h 30 v -51.989 h -133.58 v 51.989" /><path
         id="path24"
         style="fill:#ffffff;fill-opacity:1;fill-rule:nonzero;stroke:none"
         d="m 1378.98,404.77 h 32 v 181.972 h -32 v 51.988 h 104.38 l 89.59,-151.578 c 3.6,-5.992 6.4,-12.793 8.4,-18.793 l 3.6,-10.398 h 1.6 l -1.2,11.203 c -1.21,6.395 -1.21,14.387 -1.21,20.797 v 96.781 h -33.59 v 51.988 h 137.18 v -51.988 h -31.99 V 352.781 h -71.99 l -89.98,150.77 c -3.22,6 -6.41,12.801 -8.41,18.801 l -3.61,10.398 h -1.58 l 1.19,-11.199 c 1.2,-6.399 1.2,-14.399 1.2,-20.801 v -95.98 h 33.6 v -51.989 h -137.18 v 51.989" /><path
         id="path26"
         style="fill:#ffffff;fill-opacity:1;fill-rule:nonzero;stroke:none"
         d="m 1722.57,404.77 h 32 v 181.972 h -32 v 51.988 h 135.58 v -51.988 h -32 V 404.77 h 32 v -51.989 h -135.58 v 51.989" /><path
         id="path28"
         style="fill:#ffffff;fill-opacity:1;fill-rule:nonzero;stroke:none"
         d="m 1897.38,404.77 h 32 v 181.972 h -32 v 51.988 h 124.37 v -51.988 h -20.8 v -60.39 h 24.01 l 41.99,60.39 h -21.6 v 51.988 h 117.58 v -51.988 h -24 l -60.79,-81.992 v -0.797 c 2,-1.203 4.4,-2.801 7.2,-5.203 4.4,-4.398 10,-10.398 14.8,-20.391 l 32.39,-64.386 c 3.2,-6 9.2,-9.203 17.6,-9.203 h 12.41 v -51.989 h -48.79 c -24.01,0 -32.8,6.789 -40.41,21.192 l -42.79,87.187 c -3.6,7.602 -9.19,9.199 -20,9.199 h -9.6 V 404.77 h 30 v -51.989 h -133.57 v 51.989" /><path
         id="path30"
         style="fill:#ffffff;fill-opacity:1;fill-rule:nonzero;stroke:none"
         d="m 2277.92,664.848 135.65,73.777 135.7,-73.738 -271.35,-0.039" /><path
         id="path32"
         style="fill:#ffffff;fill-opacity:1;fill-rule:nonzero;stroke:none"
         d="m 2440.44,9.47266 h -178.85 l 35.39,525.05034 h 178.86 L 2440.44,9.47266" /><path
         id="path34"
         style="fill:#ffffff;fill-opacity:1;fill-rule:nonzero;stroke:none"
         d="m 2392.53,9.44922 h 178.85 l -35.4,525.05878 h -178.85 l 35.4,-525.05878" /><path
         id="path36"
         style="fill:#ffffff;fill-opacity:1;fill-rule:nonzero;stroke:none"
         d="m 2263.28,555.621 -3.07,-45.398 h 178.87 l 3.05,45.398 h -178.85" /><path
         id="path38"
         style="fill:#ffffff;fill-opacity:1;fill-rule:nonzero;stroke:none"
         d="m 2388.1,555.621 3.06,-45.43 h 178.85 l -3.06,45.43 H 2388.1" /><path
         id="path40"
         style="fill:#ffffff;fill-opacity:1;fill-rule:nonzero;stroke:none"
         d="m 2661.89,638.73 h 126.77 v -51.988 h -33.2 l 26.4,-126.781 c 1.6,-6.801 2.41,-14.398 2.8,-20.402 l 0.8,-9.59 h 1.61 l 1.2,9.59 c 1.19,6.004 2,13.601 3.6,20.402 l 43.97,178.769 h 55.21 l 43.99,-178.769 c 2,-6.801 2.4,-14.398 3.6,-20.402 l 1.2,-9.59 h 1.6 l 0.79,9.59 c 0.4,6.004 1.61,13.601 2.8,20.402 l 26.4,126.781 h -33.2 v 51.988 h 126.79 v -51.988 h -24 l -56.79,-233.961 h -78.79 l -36.39,146.367 c -1.59,7.606 -2.39,15.204 -3.6,21.204 l -1.2,10.398 h -1.6 l -1.19,-10.398 c -1.21,-6 -1.6,-13.598 -3.6,-21.204 l -36.4,-146.367 h -78.8 l -56.78,233.961 h -23.99 v 51.988" /><path
         id="path42"
         style="fill:#ffffff;fill-opacity:1;fill-rule:nonzero;stroke:none"
         d="m 3136.27,404.77 h 32 v 65.191 l -70,116.781 h -24.39 v 51.988 h 118.38 v -51.988 h -23.99 l 29.19,-52.793 c 2.8,-4.398 3.6,-7.199 4.8,-10 0.8,-1.199 1.21,-2.797 1.6,-4 h 0.8 c 0.4,1.203 0.8,2.801 1.6,4 l 4.8,10 29.19,52.793 h -23.99 v 51.988 h 117.98 v -51.988 h -24.4 L 3239.85,469.961 V 404.77 h 32 v -51.989 h -135.58 v 51.989" /><path
         id="path44"
         style="fill:#ffffff;fill-opacity:1;fill-rule:nonzero;stroke:none"
         d="m 3502.65,408.77 c 5.21,0 9.61,0.8 13.2,2.402 11.2,4.797 17.2,18 17.2,31.187 0,17.204 -9.6,29.602 -29.99,29.602 h -41.6 V 408.77 Z m -6,119.179 c 17.6,0 25.2,12 25.2,27.59 0,10 -3.99,20.402 -13.19,24.801 -5.21,2 -10,2.402 -17.6,2.402 h -29.6 V 527.949 Z M 3357.88,404.77 h 32 v 181.972 h -32 v 51.988 h 133.58 c 22.4,0 36.4,-0.8 52.39,-6 30.4,-10.8 49.99,-34.789 49.99,-68.39 0,-25.192 -11.6,-48.789 -33.99,-61.192 v -0.796 c 33.59,-10.403 45.59,-37.993 45.59,-65.594 0,-42.789 -30,-71.578 -63.59,-79.977 -15.6,-3.601 -27.19,-4 -42.79,-4 h -141.18 v 51.989" /><path
         id="path46"
         style="fill:#ffffff;fill-opacity:1;fill-rule:nonzero;stroke:none"
         d="m 3785.05,409.973 c 41.99,0 76.39,37.59 76.39,87.578 0,48 -34.4,83.992 -76.39,83.992 -41.99,0 -76.39,-35.992 -76.39,-83.992 0,-49.988 34.4,-87.578 76.39,-87.578 z m 0,233.558 c 87.58,0 150.37,-63.992 150.37,-145.98 0,-83.981 -62.79,-149.571 -150.37,-149.571 -87.59,0 -150.37,65.59 -150.37,149.571 0,81.988 62.78,145.98 150.37,145.98" /><path
         id="path48"
         style="fill:#ffffff;fill-opacity:1;fill-rule:nonzero;stroke:none"
         d="m 4104.65,509.152 c 22.39,0 36.4,11.2 36.4,37.2 0,13.199 -3.21,25.589 -15.61,31.589 -6.4,3.2 -15.59,4.801 -27.6,4.801 h -25.58 v -73.59 z M 3968.66,404.77 h 32.01 v 181.972 h -32.01 v 51.988 h 129.18 c 22.01,0 40.8,-0.8 57.2,-5.597 34.8,-10.801 57.19,-38.395 57.19,-80.391 0,-37.992 -17.6,-62.781 -46.4,-78.383 v -0.796 c 2.01,-1.2 4.41,-2.403 6.41,-4 3.59,-2.801 8,-6.801 11.19,-13.204 l 22,-42.386 c 3.6,-6.801 9.2,-9.203 18.4,-9.203 h 9.99 v -51.989 h -47.19 c -22.79,0 -32.39,5.602 -40.39,21.192 l -34.79,66.789 c -4.8,9.199 -10,12.398 -24.8,12.398 h -14.39 v -48.39 h 29.99 v -51.989 h -133.59 v 51.989" /><path
         id="path50"
         style="fill:#ffffff;fill-opacity:1;fill-rule:nonzero;stroke:none"
         d="m 4406.24,643.531 c 34.8,0 115.59,-10.801 115.59,-57.191 v -45.188 h -63.99 v 21.989 c 0,16 -29.2,20.398 -48.4,20.398 -46.38,0 -78.79,-30.398 -78.79,-83.187 0,-59.192 35.2,-92.379 82.8,-92.379 12.79,0 47.58,3.199 47.58,20.386 v 22 h 64 v -45.988 c 0,-43.59 -77.19,-56.391 -116.79,-56.391 -87.59,0 -151.57,64.79 -151.57,148.372 0,85.191 65.99,147.179 149.57,147.179" /><path
         id="path52"
         style="fill:#ffffff;fill-opacity:1;fill-rule:nonzero;stroke:none"
         d="m 4561.87,396.773 121.97,172.77 c 2.8,4.398 5.61,7.199 8.39,10 l 4.41,3.602 v 0.796 c -2,0 -3.6,0 -5.59,-0.398 -3.2,-0.398 -7.21,-0.801 -11.6,-0.801 h -56 v -40.39 h -59.99 v 96.382 h 219.57 V 595.535 L 4660.64,421.973 c -2.8,-4.399 -5.59,-6.813 -8.39,-9.602 l -4.4,-3.996 v -0.801 l 5.6,0.801 c 3.21,0.398 7.19,0.398 11.59,0.398 h 62.81 v 41.989 h 59.97 v -97.981 h -225.95 v 43.992" /><path
         id="path54"
         style="fill:#ffffff;fill-opacity:1;fill-rule:nonzero;stroke:none"
         d="m 4872.65,404.77 h 31.99 v 65.191 l -69.98,116.781 h -24.39 v 51.988 h 118.38 v -51.988 h -24.01 l 29.2,-52.793 c 2.79,-4.398 3.6,-7.199 4.81,-10 0.8,-1.199 1.19,-2.797 1.6,-4 h 0.79 c 0.4,1.203 0.8,2.801 1.6,4 l 4.8,10 29.19,52.793 h -23.99 v 51.988 h 117.98 v -51.988 h -24.41 L 4976.23,469.961 V 404.77 h 32.01 v -51.989 h -135.59 v 51.989" /></g></g></svg>