<svg xmlns="http://www.w3.org/2000/svg" xmlns:xlink="http://www.w3.org/1999/xlink" viewBox="0 0 620.28 603"><defs><style>.cls-1{fill:#7ec5ff;}.cls-2{fill:#11368e;}.cls-3{fill:#008aff;}.cls-4{fill:#868fc6;}</style><symbol id="ludzik_1" data-name="ludzik 1" viewBox="0 0 17.08 30.18"><path class="cls-1" d="M12.06,21.91c-.05.35-.1.66-.15.95,1.67.51,2.78,1.39,2.78,2.38,0,1.58-2.76,2.85-6.15,2.85s-6.15-1.27-6.15-2.85c0-1,1.11-1.87,2.78-2.38L5,21.91c-2.95.68-5,2.19-5,3.94,0,2.39,3.82,4.33,8.54,4.33s8.54-1.94,8.54-4.33C17.08,24.1,15,22.59,12.06,21.91Z"/><path class="cls-1" d="M5.93,22.67a10.17,10.17,0,0,0,.8,3.18h3.61a10.17,10.17,0,0,0,.8-3.18,12.7,12.7,0,0,0-5.21,0Z"/><path class="cls-1" d="M11.29,21.76c.14-.88.28-1.94.43-3.23a4.57,4.57,0,0,0,.9-1.45A23.42,23.42,0,0,0,13,9.28S12.6,8.37,9.25,7.8a4,4,0,0,1-.7.06,4.2,4.2,0,0,1-.72-.06c-3.36.57-3.72,1.48-3.72,1.48a23.42,23.42,0,0,0,.35,7.8,4.45,4.45,0,0,0,.89,1.45c.15,1.29.3,2.35.43,3.23a16.62,16.62,0,0,1,5.51,0Z"/><path class="cls-1" d="M8.54,21.53a16.22,16.22,0,0,0-2.76.23c.06.33.1.63.15.91a12.7,12.7,0,0,1,5.21,0c0-.28.1-.58.15-.91A16.11,16.11,0,0,0,8.54,21.53Z"/><path class="cls-1" d="M12.09,3.54A3.54,3.54,0,1,0,7.83,7l.59-.09h.23l.61.1A3.55,3.55,0,0,0,12.09,3.54Z"/><path class="cls-1" d="M8.6,6.91H8.42L7.83,7a3.38,3.38,0,0,0,.72.08A4.17,4.17,0,0,0,9.26,7l-.61-.1Z"/></symbol><symbol id="ludzik2" data-name="ludzik2" viewBox="0 0 17.08 30.18"><path class="cls-3" d="M12.06,21.91c-.05.35-.1.66-.15.95,1.67.51,2.78,1.39,2.78,2.38,0,1.58-2.76,2.85-6.15,2.85s-6.15-1.27-6.15-2.85c0-1,1.11-1.87,2.78-2.38L5,21.91c-2.95.68-5,2.19-5,3.94,0,2.39,3.82,4.33,8.54,4.33s8.54-1.94,8.54-4.33C17.08,24.1,15,22.59,12.06,21.91Z"/><path class="cls-3" d="M5.93,22.67a10.17,10.17,0,0,0,.8,3.18h3.61a10.17,10.17,0,0,0,.8-3.18,12.7,12.7,0,0,0-5.21,0Z"/><path class="cls-3" d="M11.29,21.76c.14-.88.28-1.94.43-3.23a4.57,4.57,0,0,0,.9-1.45A23.42,23.42,0,0,0,13,9.28S12.6,8.37,9.25,7.8a4,4,0,0,1-.7.06,4.2,4.2,0,0,1-.72-.06c-3.36.57-3.72,1.48-3.72,1.48a23.42,23.42,0,0,0,.35,7.8,4.45,4.45,0,0,0,.89,1.45c.15,1.29.3,2.35.43,3.23a16.62,16.62,0,0,1,5.51,0Z"/><path class="cls-3" d="M8.54,21.53a16.22,16.22,0,0,0-2.76.23c.06.33.1.63.15.91a12.7,12.7,0,0,1,5.21,0c0-.28.1-.58.15-.91A16.11,16.11,0,0,0,8.54,21.53Z"/><path class="cls-3" d="M12.09,3.54A3.54,3.54,0,1,0,7.83,7l.59-.09h.23l.61.1A3.55,3.55,0,0,0,12.09,3.54Z"/><path class="cls-3" d="M8.6,6.91H8.42L7.83,7a3.38,3.38,0,0,0,.72.08A4.17,4.17,0,0,0,9.26,7l-.61-.1Z"/></symbol><symbol id="ludzik3" data-name="ludzik3" viewBox="0 0 17.08 30.18"><path class="cls-2" d="M12.06,21.91c-.05.35-.1.66-.15.95,1.67.51,2.78,1.39,2.78,2.38,0,1.58-2.76,2.85-6.15,2.85s-6.15-1.27-6.15-2.85c0-1,1.11-1.87,2.78-2.38L5,21.91c-2.95.68-5,2.19-5,3.94,0,2.39,3.82,4.33,8.54,4.33s8.54-1.94,8.54-4.33C17.08,24.1,15,22.59,12.06,21.91Z"/><path class="cls-2" d="M5.93,22.67a10.17,10.17,0,0,0,.8,3.18h3.61a10.17,10.17,0,0,0,.8-3.18,12.7,12.7,0,0,0-5.21,0Z"/><path class="cls-2" d="M11.29,21.76c.14-.88.28-1.94.43-3.23a4.57,4.57,0,0,0,.9-1.45A23.42,23.42,0,0,0,13,9.28S12.6,8.37,9.25,7.8a4,4,0,0,1-.7.06,4.2,4.2,0,0,1-.72-.06c-3.36.57-3.72,1.48-3.72,1.48a23.42,23.42,0,0,0,.35,7.8,4.45,4.45,0,0,0,.89,1.45c.15,1.29.3,2.35.43,3.23a16.62,16.62,0,0,1,5.51,0Z"/><path class="cls-2" d="M8.54,21.53a16.22,16.22,0,0,0-2.76.23c.06.33.1.63.15.91a12.7,12.7,0,0,1,5.21,0c0-.28.1-.58.15-.91A16.11,16.11,0,0,0,8.54,21.53Z"/><path class="cls-2" d="M12.09,3.54A3.54,3.54,0,1,0,7.83,7l.59-.09h.23l.61.1A3.55,3.55,0,0,0,12.09,3.54Z"/><path class="cls-2" d="M8.6,6.91H8.42L7.83,7a3.38,3.38,0,0,0,.72.08A4.17,4.17,0,0,0,9.26,7l-.61-.1Z"/></symbol><symbol id="luidzik5" data-name="luidzik5" viewBox="0 0 17.08 30.18"><path class="cls-3" d="M12.06,21.91c-.05.35-.1.66-.15.95,1.67.51,2.78,1.39,2.78,2.38,0,1.58-2.76,2.85-6.15,2.85s-6.15-1.27-6.15-2.85c0-1,1.11-1.87,2.78-2.38L5,21.91c-2.95.68-5,2.19-5,3.94,0,2.39,3.82,4.33,8.54,4.33s8.54-1.94,8.54-4.33C17.08,24.1,15,22.59,12.06,21.91Z"/><path class="cls-3" d="M5.93,22.67a10.17,10.17,0,0,0,.8,3.18h3.61a10.17,10.17,0,0,0,.8-3.18,12.7,12.7,0,0,0-5.21,0Z"/><path class="cls-3" d="M11.29,21.76c.14-.88.28-1.94.43-3.23a4.57,4.57,0,0,0,.9-1.45A23.42,23.42,0,0,0,13,9.28S12.6,8.37,9.25,7.8a4,4,0,0,1-.7.06,4.2,4.2,0,0,1-.72-.06c-3.36.57-3.72,1.48-3.72,1.48a23.42,23.42,0,0,0,.35,7.8,4.45,4.45,0,0,0,.89,1.45c.15,1.29.3,2.35.43,3.23a16.62,16.62,0,0,1,5.51,0Z"/><path class="cls-3" d="M8.54,21.53a16.22,16.22,0,0,0-2.76.23c.06.33.1.63.15.91a12.7,12.7,0,0,1,5.21,0c0-.28.1-.58.15-.91A16.11,16.11,0,0,0,8.54,21.53Z"/><path class="cls-3" d="M12.09,3.54A3.54,3.54,0,1,0,7.83,7l.59-.09h.23l.61.1A3.55,3.55,0,0,0,12.09,3.54Z"/><path class="cls-3" d="M8.6,6.91H8.42L7.83,7a3.38,3.38,0,0,0,.72.08A4.17,4.17,0,0,0,9.26,7l-.61-.1Z"/></symbol><symbol id="ludzik6" data-name="ludzik6" viewBox="0 0 17.08 30.18"><path class="cls-1" d="M12.06,21.91c-.05.35-.1.66-.15.95,1.67.51,2.78,1.39,2.78,2.38,0,1.58-2.76,2.85-6.15,2.85s-6.15-1.27-6.15-2.85c0-1,1.11-1.87,2.78-2.38L5,21.91c-2.95.68-5,2.19-5,3.94,0,2.39,3.82,4.33,8.54,4.33s8.54-1.94,8.54-4.33C17.08,24.1,15,22.59,12.06,21.91Z"/><path class="cls-1" d="M5.93,22.67a10.17,10.17,0,0,0,.8,3.18h3.61a10.17,10.17,0,0,0,.8-3.18,12.7,12.7,0,0,0-5.21,0Z"/><path class="cls-1" d="M11.29,21.76c.14-.88.28-1.94.43-3.23a4.57,4.57,0,0,0,.9-1.45A23.42,23.42,0,0,0,13,9.28S12.6,8.37,9.25,7.8a4,4,0,0,1-.7.06,4.2,4.2,0,0,1-.72-.06c-3.36.57-3.72,1.48-3.72,1.48a23.42,23.42,0,0,0,.35,7.8,4.45,4.45,0,0,0,.89,1.45c.15,1.29.3,2.35.43,3.23a16.62,16.62,0,0,1,5.51,0Z"/><path class="cls-1" d="M8.54,21.53a16.22,16.22,0,0,0-2.76.23c.06.33.1.63.15.91a12.7,12.7,0,0,1,5.21,0c0-.28.1-.58.15-.91A16.11,16.11,0,0,0,8.54,21.53Z"/><path class="cls-1" d="M12.09,3.54A3.54,3.54,0,1,0,7.83,7l.59-.09h.23l.61.1A3.55,3.55,0,0,0,12.09,3.54Z"/><path class="cls-1" d="M8.6,6.91H8.42L7.83,7a3.38,3.38,0,0,0,.72.08A4.17,4.17,0,0,0,9.26,7l-.61-.1Z"/></symbol><symbol id="ludzik7" data-name="ludzik7" viewBox="0 0 17.08 30.18"><path class="cls-4" d="M12.06,21.91c-.05.35-.1.66-.15.95,1.67.51,2.78,1.39,2.78,2.38,0,1.58-2.76,2.85-6.15,2.85s-6.15-1.27-6.15-2.85c0-1,1.11-1.87,2.78-2.38L5,21.91c-2.95.68-5,2.19-5,3.94,0,2.39,3.82,4.33,8.54,4.33s8.54-1.94,8.54-4.33C17.08,24.1,15,22.59,12.06,21.91Z"/><path class="cls-4" d="M5.93,22.67a10.17,10.17,0,0,0,.8,3.18h3.61a10.17,10.17,0,0,0,.8-3.18,12.7,12.7,0,0,0-5.21,0Z"/><path class="cls-4" d="M11.29,21.76c.14-.88.28-1.94.43-3.23a4.57,4.57,0,0,0,.9-1.45A23.42,23.42,0,0,0,13,9.28S12.6,8.37,9.25,7.8a4,4,0,0,1-.7.06,4.2,4.2,0,0,1-.72-.06c-3.36.57-3.72,1.48-3.72,1.48a23.42,23.42,0,0,0,.35,7.8,4.45,4.45,0,0,0,.89,1.45c.15,1.29.3,2.35.43,3.23a16.62,16.62,0,0,1,5.51,0Z"/><path class="cls-4" d="M8.54,21.53a16.22,16.22,0,0,0-2.76.23c.06.33.1.63.15.91a12.7,12.7,0,0,1,5.21,0c0-.28.1-.58.15-.91A16.11,16.11,0,0,0,8.54,21.53Z"/><path class="cls-4" d="M12.09,3.54A3.54,3.54,0,1,0,7.83,7l.59-.09h.23l.61.1A3.55,3.55,0,0,0,12.09,3.54Z"/><path class="cls-4" d="M8.6,6.91H8.42L7.83,7a3.38,3.38,0,0,0,.72.08A4.17,4.17,0,0,0,9.26,7l-.61-.1Z"/></symbol><symbol id="ludzik9" data-name="ludzik9" viewBox="0 0 17.08 30.18"><path class="cls-1" d="M12.06,21.91c-.05.35-.1.66-.15.95,1.67.51,2.78,1.39,2.78,2.38,0,1.58-2.76,2.85-6.15,2.85s-6.15-1.27-6.15-2.85c0-1,1.11-1.87,2.78-2.38L5,21.91c-2.95.68-5,2.19-5,3.94,0,2.39,3.82,4.33,8.54,4.33s8.54-1.94,8.54-4.33C17.08,24.1,15,22.59,12.06,21.91Z"/><path class="cls-1" d="M5.93,22.67a10.17,10.17,0,0,0,.8,3.18h3.61a10.17,10.17,0,0,0,.8-3.18,12.7,12.7,0,0,0-5.21,0Z"/><path class="cls-1" d="M11.29,21.76c.14-.88.28-1.94.43-3.23a4.57,4.57,0,0,0,.9-1.45A23.42,23.42,0,0,0,13,9.28S12.6,8.37,9.25,7.8a4,4,0,0,1-.7.06,4.2,4.2,0,0,1-.72-.06c-3.36.57-3.72,1.48-3.72,1.48a23.42,23.42,0,0,0,.35,7.8,4.45,4.45,0,0,0,.89,1.45c.15,1.29.3,2.35.43,3.23a16.62,16.62,0,0,1,5.51,0Z"/><path class="cls-1" d="M8.54,21.53a16.22,16.22,0,0,0-2.76.23c.06.33.1.63.15.91a12.7,12.7,0,0,1,5.21,0c0-.28.1-.58.15-.91A16.11,16.11,0,0,0,8.54,21.53Z"/><path class="cls-1" d="M12.09,3.54A3.54,3.54,0,1,0,7.83,7l.59-.09h.23l.61.1A3.55,3.55,0,0,0,12.09,3.54Z"/><path class="cls-1" d="M8.6,6.91H8.42L7.83,7a3.38,3.38,0,0,0,.72.08A4.17,4.17,0,0,0,9.26,7l-.61-.1Z"/></symbol><symbol id="ludzik10" data-name="ludzik10" viewBox="0 0 17.08 30.18"><path class="cls-4" d="M12.06,21.91c-.05.35-.1.66-.15.95,1.67.51,2.78,1.39,2.78,2.38,0,1.58-2.76,2.85-6.15,2.85s-6.15-1.27-6.15-2.85c0-1,1.11-1.87,2.78-2.38L5,21.91c-2.95.68-5,2.19-5,3.94,0,2.39,3.82,4.33,8.54,4.33s8.54-1.94,8.54-4.33C17.08,24.1,15,22.59,12.06,21.91Z"/><path class="cls-4" d="M5.93,22.67a10.17,10.17,0,0,0,.8,3.18h3.61a10.17,10.17,0,0,0,.8-3.18,12.7,12.7,0,0,0-5.21,0Z"/><path class="cls-4" d="M11.29,21.76c.14-.88.28-1.94.43-3.23a4.57,4.57,0,0,0,.9-1.45A23.42,23.42,0,0,0,13,9.28S12.6,8.37,9.25,7.8a4,4,0,0,1-.7.06,4.2,4.2,0,0,1-.72-.06c-3.36.57-3.72,1.48-3.72,1.48a23.42,23.42,0,0,0,.35,7.8,4.45,4.45,0,0,0,.89,1.45c.15,1.29.3,2.35.43,3.23a16.62,16.62,0,0,1,5.51,0Z"/><path class="cls-4" d="M8.54,21.53a16.22,16.22,0,0,0-2.76.23c.06.33.1.63.15.91a12.7,12.7,0,0,1,5.21,0c0-.28.1-.58.15-.91A16.11,16.11,0,0,0,8.54,21.53Z"/><path class="cls-4" d="M12.09,3.54A3.54,3.54,0,1,0,7.83,7l.59-.09h.23l.61.1A3.55,3.55,0,0,0,12.09,3.54Z"/><path class="cls-4" d="M8.6,6.91H8.42L7.83,7a3.38,3.38,0,0,0,.72.08A4.17,4.17,0,0,0,9.26,7l-.61-.1Z"/></symbol><symbol id="ludzik11" data-name="ludzik11" viewBox="0 0 17.08 30.18"><path class="cls-3" d="M12.06,21.91c-.05.35-.1.66-.15.95,1.67.51,2.78,1.39,2.78,2.38,0,1.58-2.76,2.85-6.15,2.85s-6.15-1.27-6.15-2.85c0-1,1.11-1.87,2.78-2.38L5,21.91c-2.95.68-5,2.19-5,3.94,0,2.39,3.82,4.33,8.54,4.33s8.54-1.94,8.54-4.33C17.08,24.1,15,22.59,12.06,21.91Z"/><path class="cls-3" d="M5.93,22.67a10.17,10.17,0,0,0,.8,3.18h3.61a10.17,10.17,0,0,0,.8-3.18,12.7,12.7,0,0,0-5.21,0Z"/><path class="cls-3" d="M11.29,21.76c.14-.88.28-1.94.43-3.23a4.57,4.57,0,0,0,.9-1.45A23.42,23.42,0,0,0,13,9.28S12.6,8.37,9.25,7.8a4,4,0,0,1-.7.06,4.2,4.2,0,0,1-.72-.06c-3.36.57-3.72,1.48-3.72,1.48a23.42,23.42,0,0,0,.35,7.8,4.45,4.45,0,0,0,.89,1.45c.15,1.29.3,2.35.43,3.23a16.62,16.62,0,0,1,5.51,0Z"/><path class="cls-3" d="M8.54,21.53a16.22,16.22,0,0,0-2.76.23c.06.33.1.63.15.91a12.7,12.7,0,0,1,5.21,0c0-.28.1-.58.15-.91A16.11,16.11,0,0,0,8.54,21.53Z"/><path class="cls-3" d="M12.09,3.54A3.54,3.54,0,1,0,7.83,7l.59-.09h.23l.61.1A3.55,3.55,0,0,0,12.09,3.54Z"/><path class="cls-3" d="M8.6,6.91H8.42L7.83,7a3.38,3.38,0,0,0,.72.08A4.17,4.17,0,0,0,9.26,7l-.61-.1Z"/></symbol><symbol id="ludzik13" data-name="ludzik13" viewBox="0 0 17.08 30.18"><path class="cls-2" d="M12.06,21.91c-.05.35-.1.66-.15.95,1.67.51,2.78,1.39,2.78,2.38,0,1.58-2.76,2.85-6.15,2.85s-6.15-1.27-6.15-2.85c0-1,1.11-1.87,2.78-2.38L5,21.91c-2.95.68-5,2.19-5,3.94,0,2.39,3.82,4.33,8.54,4.33s8.54-1.94,8.54-4.33C17.08,24.1,15,22.59,12.06,21.91Z"/><path class="cls-2" d="M5.93,22.67a10.17,10.17,0,0,0,.8,3.18h3.61a10.17,10.17,0,0,0,.8-3.18,12.7,12.7,0,0,0-5.21,0Z"/><path class="cls-2" d="M11.29,21.76c.14-.88.28-1.94.43-3.23a4.57,4.57,0,0,0,.9-1.45A23.42,23.42,0,0,0,13,9.28S12.6,8.37,9.25,7.8a4,4,0,0,1-.7.06,4.2,4.2,0,0,1-.72-.06c-3.36.57-3.72,1.48-3.72,1.48a23.42,23.42,0,0,0,.35,7.8,4.45,4.45,0,0,0,.89,1.45c.15,1.29.3,2.35.43,3.23a16.62,16.62,0,0,1,5.51,0Z"/><path class="cls-2" d="M8.54,21.53a16.22,16.22,0,0,0-2.76.23c.06.33.1.63.15.91a12.7,12.7,0,0,1,5.21,0c0-.28.1-.58.15-.91A16.11,16.11,0,0,0,8.54,21.53Z"/><path class="cls-2" d="M12.09,3.54A3.54,3.54,0,1,0,7.83,7l.59-.09h.23l.61.1A3.55,3.55,0,0,0,12.09,3.54Z"/><path class="cls-2" d="M8.6,6.91H8.42L7.83,7a3.38,3.38,0,0,0,.72.08A4.17,4.17,0,0,0,9.26,7l-.61-.1Z"/></symbol><symbol id="ludzik_14" data-name="ludzik 14" viewBox="0 0 17.08 30.18"><path class="cls-1" d="M12.06,21.91c-.05.35-.1.66-.15.95,1.67.51,2.78,1.39,2.78,2.38,0,1.58-2.76,2.85-6.15,2.85s-6.15-1.27-6.15-2.85c0-1,1.11-1.87,2.78-2.38L5,21.91c-2.95.68-5,2.19-5,3.94,0,2.39,3.82,4.33,8.54,4.33s8.54-1.94,8.54-4.33C17.08,24.1,15,22.59,12.06,21.91Z"/><path class="cls-1" d="M5.93,22.67a10.17,10.17,0,0,0,.8,3.18h3.61a10.17,10.17,0,0,0,.8-3.18,12.7,12.7,0,0,0-5.21,0Z"/><path class="cls-1" d="M11.29,21.76c.14-.88.28-1.94.43-3.23a4.57,4.57,0,0,0,.9-1.45A23.42,23.42,0,0,0,13,9.28S12.6,8.37,9.25,7.8a4,4,0,0,1-.7.06,4.2,4.2,0,0,1-.72-.06c-3.36.57-3.72,1.48-3.72,1.48a23.42,23.42,0,0,0,.35,7.8,4.45,4.45,0,0,0,.89,1.45c.15,1.29.3,2.35.43,3.23a16.62,16.62,0,0,1,5.51,0Z"/><path class="cls-1" d="M8.54,21.53a16.22,16.22,0,0,0-2.76.23c.06.33.1.63.15.91a12.7,12.7,0,0,1,5.21,0c0-.28.1-.58.15-.91A16.11,16.11,0,0,0,8.54,21.53Z"/><path class="cls-1" d="M12.09,3.54A3.54,3.54,0,1,0,7.83,7l.59-.09h.23l.61.1A3.55,3.55,0,0,0,12.09,3.54Z"/><path class="cls-1" d="M8.6,6.91H8.42L7.83,7a3.38,3.38,0,0,0,.72.08A4.17,4.17,0,0,0,9.26,7l-.61-.1Z"/></symbol><symbol id="ludzik_17" data-name="ludzik 17" viewBox="0 0 17.08 30.18"><path class="cls-3" d="M12.06,21.91c-.05.35-.1.66-.15.95,1.67.51,2.78,1.39,2.78,2.38,0,1.58-2.76,2.85-6.15,2.85s-6.15-1.27-6.15-2.85c0-1,1.11-1.87,2.78-2.38L5,21.91c-2.95.68-5,2.19-5,3.94,0,2.39,3.82,4.33,8.54,4.33s8.54-1.94,8.54-4.33C17.08,24.1,15,22.59,12.06,21.91Z"/><path class="cls-3" d="M5.93,22.67a10.17,10.17,0,0,0,.8,3.18h3.61a10.17,10.17,0,0,0,.8-3.18,12.7,12.7,0,0,0-5.21,0Z"/><path class="cls-3" d="M11.29,21.76c.14-.88.28-1.94.43-3.23a4.57,4.57,0,0,0,.9-1.45A23.42,23.42,0,0,0,13,9.28S12.6,8.37,9.25,7.8a4,4,0,0,1-.7.06,4.2,4.2,0,0,1-.72-.06c-3.36.57-3.72,1.48-3.72,1.48a23.42,23.42,0,0,0,.35,7.8,4.45,4.45,0,0,0,.89,1.45c.15,1.29.3,2.35.43,3.23a16.62,16.62,0,0,1,5.51,0Z"/><path class="cls-3" d="M8.54,21.53a16.22,16.22,0,0,0-2.76.23c.06.33.1.63.15.91a12.7,12.7,0,0,1,5.21,0c0-.28.1-.58.15-.91A16.11,16.11,0,0,0,8.54,21.53Z"/><path class="cls-3" d="M12.09,3.54A3.54,3.54,0,1,0,7.83,7l.59-.09h.23l.61.1A3.55,3.55,0,0,0,12.09,3.54Z"/><path class="cls-3" d="M8.6,6.91H8.42L7.83,7a3.38,3.38,0,0,0,.72.08A4.17,4.17,0,0,0,9.26,7l-.61-.1Z"/></symbol><symbol id="ludzik_20" data-name="ludzik 20" viewBox="0 0 17.08 30.18"><path class="cls-4" d="M12.06,21.91c-.05.35-.1.66-.15.95,1.67.51,2.78,1.39,2.78,2.38,0,1.58-2.76,2.85-6.15,2.85s-6.15-1.27-6.15-2.85c0-1,1.11-1.87,2.78-2.38L5,21.91c-2.95.68-5,2.19-5,3.94,0,2.39,3.82,4.33,8.54,4.33s8.54-1.94,8.54-4.33C17.08,24.1,15,22.59,12.06,21.91Z"/><path class="cls-4" d="M5.93,22.67a10.17,10.17,0,0,0,.8,3.18h3.61a10.17,10.17,0,0,0,.8-3.18,12.7,12.7,0,0,0-5.21,0Z"/><path class="cls-4" d="M11.29,21.76c.14-.88.28-1.94.43-3.23a4.57,4.57,0,0,0,.9-1.45A23.42,23.42,0,0,0,13,9.28S12.6,8.37,9.25,7.8a4,4,0,0,1-.7.06,4.2,4.2,0,0,1-.72-.06c-3.36.57-3.72,1.48-3.72,1.48a23.42,23.42,0,0,0,.35,7.8,4.45,4.45,0,0,0,.89,1.45c.15,1.29.3,2.35.43,3.23a16.62,16.62,0,0,1,5.51,0Z"/><path class="cls-4" d="M8.54,21.53a16.22,16.22,0,0,0-2.76.23c.06.33.1.63.15.91a12.7,12.7,0,0,1,5.21,0c0-.28.1-.58.15-.91A16.11,16.11,0,0,0,8.54,21.53Z"/><path class="cls-4" d="M12.09,3.54A3.54,3.54,0,1,0,7.83,7l.59-.09h.23l.61.1A3.55,3.55,0,0,0,12.09,3.54Z"/><path class="cls-4" d="M8.6,6.91H8.42L7.83,7a3.38,3.38,0,0,0,.72.08A4.17,4.17,0,0,0,9.26,7l-.61-.1Z"/></symbol><symbol id="ludzik_21" data-name="ludzik 21" viewBox="0 0 17.08 30.18"><path class="cls-4" d="M12.06,21.91c-.05.35-.1.66-.15.95,1.67.51,2.78,1.39,2.78,2.38,0,1.58-2.76,2.85-6.15,2.85s-6.15-1.27-6.15-2.85c0-1,1.11-1.87,2.78-2.38L5,21.91c-2.95.68-5,2.19-5,3.94,0,2.39,3.82,4.33,8.54,4.33s8.54-1.94,8.54-4.33C17.08,24.1,15,22.59,12.06,21.91Z"/><path class="cls-4" d="M5.93,22.67a10.17,10.17,0,0,0,.8,3.18h3.61a10.17,10.17,0,0,0,.8-3.18,12.7,12.7,0,0,0-5.21,0Z"/><path class="cls-4" d="M11.29,21.76c.14-.88.28-1.94.43-3.23a4.57,4.57,0,0,0,.9-1.45A23.42,23.42,0,0,0,13,9.28S12.6,8.37,9.25,7.8a4,4,0,0,1-.7.06,4.2,4.2,0,0,1-.72-.06c-3.36.57-3.72,1.48-3.72,1.48a23.42,23.42,0,0,0,.35,7.8,4.45,4.45,0,0,0,.89,1.45c.15,1.29.3,2.35.43,3.23a16.62,16.62,0,0,1,5.51,0Z"/><path class="cls-4" d="M8.54,21.53a16.22,16.22,0,0,0-2.76.23c.06.33.1.63.15.91a12.7,12.7,0,0,1,5.21,0c0-.28.1-.58.15-.91A16.11,16.11,0,0,0,8.54,21.53Z"/><path class="cls-4" d="M12.09,3.54A3.54,3.54,0,1,0,7.83,7l.59-.09h.23l.61.1A3.55,3.55,0,0,0,12.09,3.54Z"/><path class="cls-4" d="M8.6,6.91H8.42L7.83,7a3.38,3.38,0,0,0,.72.08A4.17,4.17,0,0,0,9.26,7l-.61-.1Z"/></symbol></defs><title>mapa_PL</title><g id="Warstwa_2" data-name="Warstwa 2"><g id="Warstwa_3" data-name="Warstwa 3"><use width="17.08" height="30.18" transform="translate(259.99) scale(1 1.02)" xlink:href="#ludzik_1"/><use width="17.08" height="30.18" transform="translate(276.63 4.01) scale(1 1.02)" xlink:href="#ludzik_1"/><use width="17.08" height="30.18" transform="translate(292.62 8.7) scale(1 1.02)" xlink:href="#ludzik_1"/><use width="17.08" height="30.18" transform="translate(207.12 4.68) scale(1 1.02)" xlink:href="#ludzik_1"/><use width="17.08" height="30.18" transform="translate(225.22 0.95) scale(1 1.02)" xlink:href="#ludzik_1"/><use width="17.08" height="30.18" transform="translate(241.91 0.01) scale(1 1.02)" xlink:href="#ludzik_1"/><use width="17.08" height="30.18" transform="translate(171.24 14.99) scale(1 1.02)" xlink:href="#ludzik_1"/><use width="17.08" height="30.18" transform="translate(190.05 8.71) scale(1 1.02)" xlink:href="#ludzik_1"/><use width="17.08" height="30.18" transform="translate(152.78 22.72) scale(1 1.02)" xlink:href="#ludzik2"/><use width="17.08" height="30.18" transform="translate(135.7 29.52) scale(1 1.02)" xlink:href="#ludzik2"/><use width="17.08" height="30.18" transform="translate(120.19 44.92) scale(1 1.02)" xlink:href="#ludzik2"/><use width="17.08" height="30.18" transform="translate(102.89 52.76) scale(1 1.02)" xlink:href="#ludzik2"/><use width="17.08" height="30.18" transform="translate(152.89 57.41) scale(1 1.02)" xlink:href="#ludzik2"/><use width="17.08" height="30.18" transform="translate(135.59 63.21) scale(1 1.02)" xlink:href="#ludzik2"/><use width="17.08" height="30.18" transform="translate(85.93 65.24) scale(1 1.02)" xlink:href="#ludzik2"/><use width="17.08" height="30.18" transform="translate(68.63 71.05) scale(1 1.02)" xlink:href="#ludzik2"/><use width="17.08" height="30.18" transform="translate(118.63 77.74) scale(1 1.02)" xlink:href="#ludzik2"/><use width="17.08" height="30.18" transform="translate(101.33 84.56) scale(1 1.02)" xlink:href="#ludzik2"/><use width="17.08" height="30.18" transform="translate(51.56 73.82) scale(1 1.02)" xlink:href="#ludzik2"/><use width="17.08" height="30.18" transform="translate(34.26 79.62) scale(1 1.02)" xlink:href="#ludzik2"/><use width="17.08" height="30.18" transform="translate(17.29 94.15) scale(1 1.02)" xlink:href="#ludzik2"/><use width="17.08" height="30.18" transform="translate(0 99.95) scale(1 1.02)" xlink:href="#ludzik2"/><use width="17.08" height="30.18" transform="translate(50 106.64) scale(1 1.02)" xlink:href="#ludzik2"/><use width="17.08" height="30.18" transform="translate(32.7 112.44) scale(1 1.02)" xlink:href="#ludzik2"/><use width="17.08" height="30.18" transform="translate(86.37 97.66) scale(1 1.02)" xlink:href="#ludzik2"/><use width="17.08" height="30.18" transform="translate(69.07 103.46) scale(1 1.02)" xlink:href="#ludzik2"/><use width="17.08" height="30.18" transform="translate(14.69 127.84) scale(1 1.02)" xlink:href="#ludzik2"/><use width="17.08" height="30.18" transform="translate(154.32 89.34) scale(1 1.02)" xlink:href="#ludzik2"/><use width="17.08" height="30.18" transform="translate(137.02 95.14) scale(1 1.02)" xlink:href="#ludzik2"/><use width="17.08" height="30.18" transform="translate(120.06 109.66) scale(1 1.02)" xlink:href="#ludzik2"/><use width="17.08" height="30.18" transform="translate(102.76 119.55) scale(1 1.02)" xlink:href="#ludzik2"/><use width="17.08" height="30.18" transform="translate(51.42 138.56) scale(1 1.02)" xlink:href="#ludzik2"/><use width="17.08" height="30.18" transform="translate(34.13 144.37) scale(1 1.02)" xlink:href="#ludzik2"/><use width="17.08" height="30.18" transform="translate(87.8 129.58) scale(1 1.02)" xlink:href="#ludzik2"/><use width="17.08" height="30.18" transform="translate(70.5 135.39) scale(1 1.02)" xlink:href="#ludzik2"/><use width="17.08" height="30.18" transform="translate(16.12 159.76) scale(1 1.02)" xlink:href="#ludzik2"/><use width="17.08" height="30.18" transform="translate(150.79 122.61) scale(1 1.02)" xlink:href="#ludzik2"/><use width="17.08" height="30.18" transform="translate(134.27 130.86) scale(1 1.02)" xlink:href="#ludzik2"/><use width="17.08" height="30.18" transform="translate(117.48 142.12) scale(1 1.02)" xlink:href="#ludzik2"/><use width="17.08" height="30.18" transform="translate(134.13 164.32) scale(1 1.02)" xlink:href="#ludzik2"/><use width="17.08" height="30.18" transform="translate(117.34 175.57) scale(1 1.02)" xlink:href="#ludzik2"/><use width="17.08" height="30.18" transform="translate(102.76 153.58) scale(1 1.02)" xlink:href="#ludzik2"/><use width="17.08" height="30.18" transform="translate(51.42 171.57) scale(1 1.02)" xlink:href="#ludzik2"/><use width="17.08" height="30.18" transform="translate(34.13 177.38) scale(1 1.02)" xlink:href="#ludzik2"/><use width="17.08" height="30.18" transform="translate(85.8 162.59) scale(1 1.02)" xlink:href="#ludzik2"/><use width="17.08" height="30.18" transform="translate(70.5 168.4) scale(1 1.02)" xlink:href="#ludzik2"/><use width="17.08" height="30.18" transform="translate(18.12 192.77) scale(1 1.02)" xlink:href="#ludzik2"/><use width="17.08" height="30.18" transform="translate(1.57 198.7) scale(1 1.02)" xlink:href="#ludzik2"/><use width="17.08" height="30.18" transform="translate(152.92 155.15) scale(1 1.02)" xlink:href="#ludzik3"/><use width="17.08" height="30.18" transform="translate(168.96 146.8) scale(1 1.02)" xlink:href="#ludzik3"/><use width="17.08" height="30.18" transform="translate(186.95 143.29) scale(1 1.02)" xlink:href="#ludzik3"/><use width="17.08" height="30.18" transform="translate(256.28 34.04) scale(1 1.02)" xlink:href="#ludzik_1"/><use width="17.08" height="30.18" transform="translate(290.01 57.8) scale(1 1.02)" xlink:href="#ludzik_1"/><use width="17.08" height="30.18" transform="translate(306.93 56.09) scale(1 1.02)" xlink:href="#ludzik_1"/><use width="17.08" height="30.18" transform="translate(203.42 38.72) scale(1 1.02)" xlink:href="#ludzik_1"/><use width="17.08" height="30.18" transform="translate(221.52 34.99) scale(1 1.02)" xlink:href="#ludzik_1"/><use width="17.08" height="30.18" transform="translate(238.21 34.05) scale(1 1.02)" xlink:href="#ludzik_1"/><use width="17.08" height="30.18" transform="translate(168.54 48.01) scale(1 1.02)" xlink:href="#ludzik_1"/><use width="17.08" height="30.18" transform="translate(186.35 42.75) scale(1 1.02)" xlink:href="#ludzik_1"/><use width="17.08" height="30.18" transform="translate(256.86 67.35) scale(1 1.02)" xlink:href="#ludzik_1"/><use width="17.08" height="30.18" transform="translate(204 72.03) scale(1 1.02)" xlink:href="#ludzik_1"/><use width="17.08" height="30.18" transform="translate(222.1 68.3) scale(1 1.02)" xlink:href="#ludzik_1"/><use width="17.08" height="30.18" transform="translate(238.79 67.36) scale(1 1.02)" xlink:href="#ludzik_1"/><use width="17.08" height="30.18" transform="translate(169.12 81.32) scale(1 1.02)" xlink:href="#ludzik_1"/><use width="17.08" height="30.18" transform="translate(186.93 76.06) scale(1 1.02)" xlink:href="#ludzik_1"/><use width="17.08" height="30.18" transform="translate(257.25 100.21) scale(1 1.02)" xlink:href="#ludzik_1"/><use width="17.08" height="30.18" transform="translate(204.39 104.89) scale(1 1.02)" xlink:href="#ludzik_1"/><use width="17.08" height="30.18" transform="translate(222.49 101.16) scale(1 1.02)" xlink:href="#ludzik_1"/><use width="17.08" height="30.18" transform="translate(239.18 100.22) scale(1 1.02)" xlink:href="#ludzik_1"/><use width="17.08" height="30.18" transform="translate(169.51 114.18) scale(1 1.02)" xlink:href="#ludzik_1"/><use width="17.08" height="30.18" transform="translate(187.31 108.92) scale(1 1.02)" xlink:href="#ludzik_1"/><use width="17.08" height="30.18" transform="translate(272.3 55.16) scale(1 1.02)" xlink:href="#ludzik_1"/><use width="17.08" height="30.18" transform="translate(272.29 89.49) scale(1 1.02)" xlink:href="#ludzik_1"/><use width="17.08" height="30.18" transform="translate(289.86 91.86) scale(1 1.02)" xlink:href="#ludzik_1"/><use width="17.08" height="30.18" transform="translate(308.4 91.6) scale(1 1.02)" xlink:href="#ludzik_1"/><use width="17.08" height="30.18" transform="translate(274.74 122.18) scale(1 1.02)" xlink:href="#ludzik_1"/><use width="17.08" height="30.18" transform="translate(292.31 124.54) scale(1 1.02)" xlink:href="#ludzik_1"/><use width="17.08" height="30.18" transform="translate(206.37 139.61) scale(1 1.02)" xlink:href="#luidzik5"/><use width="17.08" height="30.18" transform="translate(224.12 134.4) scale(1 1.02)" xlink:href="#luidzik5"/><use width="17.08" height="30.18" transform="translate(242.46 133.15) scale(1 1.02)" xlink:href="#luidzik5"/><use width="17.08" height="30.18" transform="translate(259.58 137.57) scale(1 1.02)" xlink:href="#luidzik5"/><use width="17.08" height="30.18" transform="translate(197.9 174.58) scale(1 1.02)" xlink:href="#luidzik5"/><use width="17.08" height="30.18" transform="translate(215.65 169.37) scale(1 1.02)" xlink:href="#luidzik5"/><use width="17.08" height="30.18" transform="translate(235.6 167.14) scale(1 1.02)" xlink:href="#luidzik5"/><use width="17.08" height="30.18" transform="translate(255.75 170.94) scale(1 1.02)" xlink:href="#luidzik5"/><use width="17.08" height="30.18" transform="translate(327.47 174.36) scale(1 1.02)" xlink:href="#luidzik5"/><use width="17.08" height="30.18" transform="translate(309.42 164.75) scale(1 1.02)" xlink:href="#luidzik5"/><use width="17.08" height="30.18" transform="translate(275.84 156.18) scale(1 1.02)" xlink:href="#luidzik5"/><use width="17.08" height="30.18" transform="translate(294.04 158.96) scale(1 1.02)" xlink:href="#luidzik5"/><use width="17.08" height="30.18" transform="translate(326.44 206.33) scale(1 1.02)" xlink:href="#luidzik5"/><use width="17.08" height="30.18" transform="translate(306.93 199.71) scale(1 1.02)" xlink:href="#luidzik5"/><use width="17.08" height="30.18" transform="translate(274.59 189.16) scale(1 1.02)" xlink:href="#luidzik5"/><use width="17.08" height="30.18" transform="translate(289.46 195.96) scale(1 1.02)" xlink:href="#luidzik5"/><use width="17.08" height="30.18" transform="translate(312.03 233.29) scale(1 1.02)" xlink:href="#luidzik5"/><use width="17.08" height="30.18" transform="translate(293.74 230.65) scale(1 1.02)" xlink:href="#luidzik5"/><use width="17.08" height="30.18" transform="translate(260.32 202.61) scale(1 1.02)" xlink:href="#luidzik5"/><use width="17.08" height="30.18" transform="translate(276.28 226.91) scale(1 1.02)" xlink:href="#luidzik5"/><use width="17.08" height="30.18" transform="translate(206.11 207.15) scale(1 1.02)" xlink:href="#luidzik5"/><use width="17.08" height="30.18" transform="translate(222 198.8) scale(1 1.02)" xlink:href="#luidzik5"/><use width="17.08" height="30.18" transform="translate(240.86 202.27) scale(1 1.02)" xlink:href="#luidzik5"/><use width="17.08" height="30.18" transform="translate(260.38 237.11) scale(1 1.02)" xlink:href="#luidzik5"/><use width="17.08" height="30.18" transform="translate(242.38 235.81) scale(1 1.02)" xlink:href="#luidzik5"/><use width="17.08" height="30.18" transform="translate(224.33 233) scale(1 1.02)" xlink:href="#luidzik5"/><use width="17.08" height="30.18" transform="translate(145.31 192.15) scale(1 1.02)" xlink:href="#ludzik3"/><use width="17.08" height="30.18" transform="translate(162.35 183.8) scale(1 1.02)" xlink:href="#ludzik3"/><use width="17.08" height="30.18" transform="translate(181.34 178.24) scale(1 1.02)" xlink:href="#ludzik3"/><use width="17.08" height="30.18" transform="translate(112.75 210.05) scale(1 1.02)" xlink:href="#ludzik3"/><use width="17.08" height="30.18" transform="translate(128.79 203.74) scale(1 1.02)" xlink:href="#ludzik3"/><use width="17.08" height="30.18" transform="translate(153.53 222.65) scale(1 1.02)" xlink:href="#ludzik3"/><use width="17.08" height="30.18" transform="translate(169.57 214.31) scale(1 1.02)" xlink:href="#ludzik3"/><use width="17.08" height="30.18" transform="translate(187.56 210.79) scale(1 1.02)" xlink:href="#ludzik3"/><use width="17.08" height="30.18" transform="translate(119.98 240.56) scale(1 1.02)" xlink:href="#ludzik3"/><use width="17.08" height="30.18" transform="translate(137.01 234.25) scale(1 1.02)" xlink:href="#ludzik3"/><use width="17.08" height="30.18" transform="translate(102.33 244.55) scale(1 1.02)" xlink:href="#ludzik3"/><use width="17.08" height="30.18" transform="translate(157.27 256.05) scale(1 1.02)" xlink:href="#ludzik3"/><use width="17.08" height="30.18" transform="translate(173.3 247.7) scale(1 1.02)" xlink:href="#ludzik3"/><use width="17.08" height="30.18" transform="translate(191.29 244.18) scale(1 1.02)" xlink:href="#ludzik3"/><use width="17.08" height="30.18" transform="translate(123.71 273.95) scale(1 1.02)" xlink:href="#ludzik3"/><use width="17.08" height="30.18" transform="translate(140.75 267.64) scale(1 1.02)" xlink:href="#ludzik3"/><use width="17.08" height="30.18" transform="translate(105.07 275.91) scale(1 1.02)" xlink:href="#ludzik3"/><use width="17.08" height="30.18" transform="translate(209.12 243.87) scale(1 1.02)" xlink:href="#ludzik3"/><use width="17.08" height="30.18" transform="translate(162.02 289.14) scale(1 1.02)" xlink:href="#ludzik3"/><use width="17.08" height="30.18" transform="translate(249.32 336.83) scale(1 1.02)" xlink:href="#ludzik3"/><use width="17.08" height="30.18" transform="translate(195.13 310.29) scale(1 1.02)" xlink:href="#ludzik3"/><use width="17.08" height="30.18" transform="translate(128.46 306.02) scale(1 1.02)" xlink:href="#ludzik3"/><use width="17.08" height="30.18" transform="translate(145.5 300.73) scale(1 1.02)" xlink:href="#ludzik3"/><use width="17.08" height="30.18" transform="translate(160.02 322.22) scale(1 1.02)" xlink:href="#ludzik3"/><use width="17.08" height="30.18" transform="translate(212.96 309.98) scale(1 1.02)" xlink:href="#ludzik3"/><use width="17.08" height="30.18" transform="translate(228.48 300.76) scale(1 1.02)" xlink:href="#ludzik3"/><use width="17.08" height="30.18" transform="translate(263.92 305.77) scale(1 1.02)" xlink:href="#ludzik3"/><use width="17.08" height="30.18" transform="translate(246.01 303.62) scale(1 1.02)" xlink:href="#ludzik3"/><use width="17.08" height="30.18" transform="translate(278.88 293.24) scale(1 1.02)" xlink:href="#ludzik3"/><use width="17.08" height="30.18" transform="translate(176.76 313.87) scale(1 1.02)" xlink:href="#ludzik3"/><use width="17.08" height="30.18" transform="translate(294.96 262.1) scale(1 1.02)" xlink:href="#luidzik5"/><use width="17.08" height="30.18" transform="translate(277.49 258.36) scale(1 1.02)" xlink:href="#luidzik5"/><use width="17.08" height="30.18" transform="translate(178.06 280.79) scale(1 1.02)" xlink:href="#ludzik3"/><use width="17.08" height="30.18" transform="translate(196.05 277.27) scale(1 1.02)" xlink:href="#ludzik3"/><use width="17.08" height="30.18" transform="translate(213.88 276.95) scale(1 1.02)" xlink:href="#ludzik3"/><use width="17.08" height="30.18" transform="translate(229.4 267.73) scale(1 1.02)" xlink:href="#ludzik3"/><use width="17.08" height="30.18" transform="translate(263.83 272.75) scale(1 1.02)" xlink:href="#ludzik3"/><use width="17.08" height="30.18" transform="translate(246.67 268.27) scale(1 1.02)" xlink:href="#ludzik3"/><use width="17.08" height="30.18" transform="translate(231.02 335.05) scale(1 1.02)" xlink:href="#ludzik3"/><use width="17.08" height="30.18" transform="translate(214.51 344.53) scale(1 1.02)" xlink:href="#ludzik3"/><use width="17.08" height="30.18" transform="translate(194.42 343) scale(1 1.02)" xlink:href="#ludzik3"/><use width="17.08" height="30.18" transform="translate(227.49 369.55) scale(1 1.02)" xlink:href="#ludzik3"/><use width="17.08" height="30.18" transform="translate(325.64 40.5) scale(1 1.02)" xlink:href="#ludzik_1"/><use width="17.08" height="30.18" transform="translate(99.62 186.87) scale(1 1.02)" xlink:href="#ludzik6"/><use width="17.08" height="30.18" transform="translate(82.76 196.89) scale(1 1.02)" xlink:href="#ludzik6"/><use width="17.08" height="30.18" transform="translate(96.75 220.01) scale(1 1.02)" xlink:href="#ludzik6"/><use width="17.08" height="30.18" transform="translate(64.57 199.03) scale(1 1.02)" xlink:href="#ludzik6"/><use width="17.08" height="30.18" transform="translate(47.71 209.05) scale(1 1.02)" xlink:href="#ludzik6"/><use width="17.08" height="30.18" transform="translate(31.13 219.44) scale(1 1.02)" xlink:href="#ludzik6"/><use width="17.08" height="30.18" transform="translate(14.27 229.46) scale(1 1.02)" xlink:href="#ludzik6"/><use width="17.08" height="30.18" transform="translate(107.82 310.39) scale(1 1.02)" xlink:href="#ludzik6"/><use width="17.08" height="30.18" transform="translate(85.93 327.61) scale(1 1.02)" xlink:href="#ludzik6"/><use width="17.08" height="30.18" transform="translate(67.75 337.39) scale(1 1.02)" xlink:href="#ludzik6"/><use width="17.08" height="30.18" transform="translate(48.57 347.77) scale(1 1.02)" xlink:href="#ludzik6"/><use width="17.08" height="30.18" transform="translate(79.67 231.28) scale(1 1.02)" xlink:href="#ludzik6"/><use width="17.08" height="30.18" transform="translate(61.48 233.42) scale(1 1.02)" xlink:href="#ludzik6"/><use width="17.08" height="30.18" transform="translate(44.62 243.43) scale(1 1.02)" xlink:href="#ludzik6"/><use width="17.08" height="30.18" transform="translate(28.04 253.82) scale(1 1.02)" xlink:href="#ludzik6"/><use width="17.08" height="30.18" transform="translate(84.24 265.12) scale(1 1.02)" xlink:href="#ludzik6"/><use width="17.08" height="30.18" transform="translate(66.05 267.26) scale(1 1.02)" xlink:href="#ludzik6"/><use width="17.08" height="30.18" transform="translate(49.19 277.28) scale(1 1.02)" xlink:href="#ludzik6"/><use width="17.08" height="30.18" transform="translate(32.61 287.67) scale(1 1.02)" xlink:href="#ludzik6"/><use width="17.08" height="30.18" transform="translate(92 296.47) scale(1 1.02)" xlink:href="#ludzik6"/><use width="17.08" height="30.18" transform="translate(71.72 299.41) scale(1 1.02)" xlink:href="#ludzik6"/><use width="17.08" height="30.18" transform="translate(56.24 308.63) scale(1 1.02)" xlink:href="#ludzik6"/><use width="17.08" height="30.18" transform="translate(41.15 317.19) scale(1 1.02)" xlink:href="#ludzik6"/><use width="17.08" height="30.18" transform="translate(26 325.56) scale(1 1.02)" xlink:href="#ludzik6"/><use width="17.08" height="30.18" transform="translate(49.29 383.22) scale(1 1.02)" xlink:href="#ludzik7"/><use width="17.08" height="30.18" transform="translate(65.34 372.38) scale(1 1.02)" xlink:href="#ludzik7"/><use width="17.08" height="30.18" transform="translate(83.26 365.06) scale(1 1.02)" xlink:href="#ludzik7"/><use width="17.08" height="30.18" transform="translate(99.31 354.23) scale(1 1.02)" xlink:href="#ludzik7"/><use width="17.08" height="30.18" transform="translate(115.4 343) scale(1 1.02)" xlink:href="#ludzik7"/><use width="17.08" height="30.18" transform="translate(136.17 337.07) scale(1 1.02)" xlink:href="#ludzik7"/><use width="17.08" height="30.18" transform="translate(150.08 430.01) scale(1 1.02)" xlink:href="#ludzik7"/><use width="17.08" height="30.18" transform="translate(167.01 419.18) scale(1 1.02)" xlink:href="#ludzik7"/><use width="17.08" height="30.18" transform="translate(182.54 410.49) scale(1 1.02)" xlink:href="#ludzik7"/><use width="17.08" height="30.18" transform="translate(204.58 375.04) scale(1 1.02)" xlink:href="#ludzik7"/><use width="17.08" height="30.18" transform="translate(185.3 377.9) scale(1 1.02)" xlink:href="#ludzik7"/><use width="17.08" height="30.18" transform="translate(175.28 346.79) scale(1 1.02)" xlink:href="#ludzik7"/><use width="17.08" height="30.18" transform="translate(70.04 407.21) scale(1 1.02)" xlink:href="#ludzik7"/><use width="17.08" height="30.18" transform="translate(86.09 396.38) scale(1 1.02)" xlink:href="#ludzik7"/><use width="17.08" height="30.18" transform="translate(104.01 389.05) scale(1 1.02)" xlink:href="#ludzik7"/><use width="17.08" height="30.18" transform="translate(120.06 378.22) scale(1 1.02)" xlink:href="#ludzik7"/><use width="17.08" height="30.18" transform="translate(136.14 369.97) scale(1 1.02)" xlink:href="#ludzik7"/><use width="17.08" height="30.18" transform="translate(154.31 356.71) scale(1 1.02)" xlink:href="#ludzik7"/><use width="17.08" height="30.18" transform="translate(102.38 423.05) scale(1 1.02)" xlink:href="#ludzik7"/><use width="17.08" height="30.18" transform="translate(118.43 412.22) scale(1 1.02)" xlink:href="#ludzik7"/><use width="17.08" height="30.18" transform="translate(136.36 404.9) scale(1 1.02)" xlink:href="#ludzik7"/><use width="17.08" height="30.18" transform="translate(152.41 394.06) scale(1 1.02)" xlink:href="#ludzik7"/><use width="17.08" height="30.18" transform="translate(168.49 382.84) scale(1 1.02)" xlink:href="#ludzik7"/><use width="17.08" height="30.18" transform="translate(132.21 439.73) scale(1 1.02)" xlink:href="#ludzik7"/><use width="17.08" height="30.18" transform="translate(161.37 459.54) scale(1 1.02)" xlink:href="#ludzik7"/><use width="17.08" height="30.18" transform="translate(143.45 468.76) scale(1 1.02)" xlink:href="#ludzik7"/><use width="17.08" height="30.18" transform="translate(200.63 409.02) scale(1 1.02)" xlink:href="#ludzik9"/><use width="17.08" height="30.18" transform="translate(178.11 446.53) scale(1 1.02)" xlink:href="#ludzik9"/><use width="17.08" height="30.18" transform="translate(193.71 442.03) scale(1 1.02)" xlink:href="#ludzik9"/><use width="17.08" height="30.18" transform="translate(217.42 399.77) scale(1 1.02)" xlink:href="#ludzik9"/><use width="17.08" height="30.18" transform="translate(235.22 399.09) scale(1 1.02)" xlink:href="#ludzik9"/><use width="17.08" height="30.18" transform="translate(254.91 401.02) scale(1 1.02)" xlink:href="#ludzik9"/><use width="17.08" height="30.18" transform="translate(212.25 436.81) scale(1 1.02)" xlink:href="#ludzik9"/><use width="17.08" height="30.18" transform="translate(229.4 431.61) scale(1 1.02)" xlink:href="#ludzik9"/><use width="17.08" height="30.18" transform="translate(246.1 432.29) scale(1 1.02)" xlink:href="#ludzik9"/><use width="17.08" height="30.18" transform="translate(239.38 465.49) scale(1 1.02)" xlink:href="#ludzik9"/><use width="17.08" height="30.18" transform="translate(205.59 468.44) scale(1 1.02)" xlink:href="#ludzik9"/><use width="17.08" height="30.18" transform="translate(222.27 468.68) scale(1 1.02)" xlink:href="#ludzik9"/><use width="17.08" height="30.18" transform="translate(249.35 369.55) scale(1 1.02)" xlink:href="#ludzik10"/><use width="17.08" height="30.18" transform="translate(266.05 338.89) scale(1 1.02)" xlink:href="#ludzik10"/><use width="17.08" height="30.18" transform="translate(268.66 372.38) scale(1 1.02)" xlink:href="#ludzik10"/><use width="17.08" height="30.18" transform="translate(281.84 326.79) scale(1 1.02)" xlink:href="#ludzik10"/><use width="17.08" height="30.18" transform="translate(283.78 361.03) scale(1 1.02)" xlink:href="#ludzik10"/><use width="17.08" height="30.18" transform="translate(295.68 296.22) scale(1 1.02)" xlink:href="#ludzik10"/><use width="17.08" height="30.18" transform="translate(296.91 331.88) scale(1 1.02)" xlink:href="#ludzik10"/><use width="17.08" height="30.18" transform="translate(310.7 268.67) scale(1 1.02)" xlink:href="#ludzik10"/><use width="17.08" height="30.18" transform="translate(311.93 304.33) scale(1 1.02)" xlink:href="#ludzik10"/><use width="17.08" height="30.18" transform="translate(326.85 280.57) scale(1 1.02)" xlink:href="#ludzik10"/><use width="17.08" height="30.18" transform="translate(328.08 316.23) scale(1 1.02)" xlink:href="#ludzik10"/><use width="17.08" height="30.18" transform="translate(313.26 338.84) scale(1 1.02)" xlink:href="#ludzik10"/><use width="17.08" height="30.18" transform="translate(299.51 367.99) scale(1 1.02)" xlink:href="#ludzik10"/><use width="17.08" height="30.18" transform="translate(345.38 277.03) scale(1 1.02)" xlink:href="#ludzik10"/><use width="17.08" height="30.18" transform="translate(361.53 288.93) scale(1 1.02)" xlink:href="#ludzik10"/><use width="17.08" height="30.18" transform="translate(346.1 309.75) scale(1 1.02)" xlink:href="#ludzik10"/><use width="17.08" height="30.18" transform="translate(364.37 322.97) scale(1 1.02)" xlink:href="#ludzik10"/><use width="17.08" height="30.18" transform="translate(380.52 314.72) scale(1 1.02)" xlink:href="#ludzik10"/><use width="17.08" height="30.18" transform="translate(348.14 343.63) scale(1 1.02)" xlink:href="#ludzik10"/><use width="17.08" height="30.18" transform="translate(331.02 351.31) scale(1 1.02)" xlink:href="#ludzik10"/><use width="17.08" height="30.18" transform="translate(367.52 356.82) scale(1 1.02)" xlink:href="#ludzik10"/><use width="17.08" height="30.18" transform="translate(383.68 348.57) scale(1 1.02)" xlink:href="#ludzik10"/><use width="17.08" height="30.18" transform="translate(351.3 377.49) scale(1 1.02)" xlink:href="#ludzik10"/><use width="17.08" height="30.18" transform="translate(334.17 385.16) scale(1 1.02)" xlink:href="#ludzik10"/><use width="17.08" height="30.18" transform="translate(316.02 374.5) scale(1 1.02)" xlink:href="#ludzik10"/><use width="17.08" height="30.18" transform="translate(274.74 403.78) scale(1 1.02)" xlink:href="#ludzik11"/><use width="17.08" height="30.18" transform="translate(291.48 398.61) scale(1 1.02)" xlink:href="#ludzik11"/><use width="17.08" height="30.18" transform="translate(307.09 407.04) scale(1 1.02)" xlink:href="#ludzik11"/><use width="17.08" height="30.18" transform="translate(322.61 416.75) scale(1 1.02)" xlink:href="#ludzik11"/><use width="17.08" height="30.18" transform="translate(341.52 416.43) scale(1 1.02)" xlink:href="#ludzik11"/><use width="17.08" height="30.18" transform="translate(282.67 434.57) scale(1 1.02)" xlink:href="#ludzik11"/><use width="17.08" height="30.18" transform="translate(301.81 439.59) scale(1 1.02)" xlink:href="#ludzik11"/><use width="17.08" height="30.18" transform="translate(317.84 448.53) scale(1 1.02)" xlink:href="#ludzik11"/><use width="17.08" height="30.18" transform="translate(264.08 433.85) scale(1 1.02)" xlink:href="#ludzik11"/><use width="17.08" height="30.18" transform="translate(335.6 446.39) scale(1 1.02)" xlink:href="#ludzik11"/><use width="17.08" height="30.18" transform="translate(274.98 466.61) scale(1 1.02)" xlink:href="#ludzik11"/><use width="17.08" height="30.18" transform="translate(294.12 471.62) scale(1 1.02)" xlink:href="#ludzik11"/><use width="17.08" height="30.18" transform="translate(311.44 479.86) scale(1 1.02)" xlink:href="#ludzik11"/><use width="17.08" height="30.18" transform="translate(256.4 464.18) scale(1 1.02)" xlink:href="#ludzik11"/><use width="17.08" height="30.18" transform="translate(249.35 496.06) scale(1 1.02)" xlink:href="#ludzik11"/><use width="17.08" height="30.18" transform="translate(267 498.3) scale(1 1.02)" xlink:href="#ludzik11"/><use width="17.08" height="30.18" transform="translate(283.54 503) scale(1 1.02)" xlink:href="#ludzik11"/><use width="17.08" height="30.18" transform="translate(300.46 508) scale(1 1.02)" xlink:href="#ludzik11"/><use width="17.08" height="30.18" transform="translate(286.81 537.03) scale(1 1.02)" xlink:href="#ludzik11"/><use width="17.08" height="30.18" transform="translate(304.57 541.4) scale(1 1.02)" xlink:href="#ludzik11"/><use width="17.08" height="30.18" transform="translate(319.29 513.38) scale(1 1.02)" xlink:href="#ludzik13"/><use width="17.08" height="30.18" transform="translate(330.32 478.11) scale(1 1.02)" xlink:href="#ludzik13"/><use width="17.08" height="30.18" transform="translate(348.62 481.42) scale(1 1.02)" xlink:href="#ludzik13"/><use width="17.08" height="30.18" transform="translate(353.68 449.42) scale(1 1.02)" xlink:href="#ludzik13"/><use width="17.08" height="30.18" transform="translate(338.62 512.48) scale(1 1.02)" xlink:href="#ludzik13"/><use width="17.08" height="30.18" transform="translate(368.64 467.95) scale(1 1.02)" xlink:href="#ludzik13"/><use width="17.08" height="30.18" transform="translate(334.04 544.18) scale(1 1.02)" xlink:href="#ludzik13"/><use width="17.08" height="30.18" transform="translate(368.55 500.07) scale(1 1.02)" xlink:href="#ludzik13"/><use width="17.08" height="30.18" transform="translate(355.55 522.96) scale(1 1.02)" xlink:href="#ludzik13"/><use width="17.08" height="30.18" transform="translate(350.97 555.68) scale(1 1.02)" xlink:href="#ludzik13"/><use width="17.08" height="30.18" transform="translate(383.98 481.34) scale(1 1.02)" xlink:href="#ludzik13"/><use width="17.08" height="30.18" transform="translate(383.89 513.46) scale(1 1.02)" xlink:href="#ludzik13"/><use width="17.08" height="30.18" transform="translate(370.89 536.35) scale(1 1.02)" xlink:href="#ludzik13"/><use width="17.08" height="30.18" transform="translate(390.55 546.25) scale(1 1.02)" xlink:href="#ludzik13"/><use width="17.08" height="30.18" transform="translate(402.73 475.54) scale(1 1.02)" xlink:href="#ludzik13"/><use width="17.08" height="30.18" transform="translate(402.64 507.67) scale(1 1.02)" xlink:href="#ludzik13"/><use width="17.08" height="30.18" transform="translate(409.3 540.45) scale(1 1.02)" xlink:href="#ludzik13"/><use width="17.08" height="30.18" transform="translate(421.14 470.18) scale(1 1.02)" xlink:href="#ludzik13"/><use width="17.08" height="30.18" transform="translate(421.05 502.3) scale(1 1.02)" xlink:href="#ludzik13"/><use width="17.08" height="30.18" transform="translate(427.71 535.08) scale(1 1.02)" xlink:href="#ludzik13"/><use width="17.08" height="30.18" transform="translate(356.12 411) scale(1 1.02)" xlink:href="#ludzik_14"/><use width="17.08" height="30.18" transform="translate(370.18 391.65) scale(1 1.02)" xlink:href="#ludzik_14"/><use width="17.08" height="30.18" transform="translate(386.73 381.15) scale(1 1.02)" xlink:href="#ludzik_14"/><use width="17.08" height="30.18" transform="translate(370.89 428.64) scale(1 1.02)" xlink:href="#ludzik_14"/><use width="17.08" height="30.18" transform="translate(386.49 414.96) scale(1 1.02)" xlink:href="#ludzik_14"/><use width="17.08" height="30.18" transform="translate(387.53 447.99) scale(1 1.02)" xlink:href="#ludzik_14"/><use width="17.08" height="30.18" transform="translate(420.34 397.46) scale(1 1.02)" xlink:href="#ludzik_14"/><use width="17.08" height="30.18" transform="translate(404.21 408.38) scale(1 1.02)" xlink:href="#ludzik_14"/><use width="17.08" height="30.18" transform="translate(405.24 441.4) scale(1 1.02)" xlink:href="#ludzik_14"/><use width="17.08" height="30.18" transform="translate(438.89 400.56) scale(1 1.02)" xlink:href="#ludzik_14"/><use width="17.08" height="30.18" transform="translate(438.89 431.85) scale(1 1.02)" xlink:href="#ludzik_14"/><use width="17.08" height="30.18" transform="translate(420.34 431.61) scale(1 1.02)" xlink:href="#ludzik_14"/><use width="17.08" height="30.18" transform="translate(457.15 408.44) scale(1 1.02)" xlink:href="#ludzik_14"/><use width="17.08" height="30.18" transform="translate(403.36 371.63) scale(1 1.02)" xlink:href="#ludzik13"/><use width="17.08" height="30.18" transform="translate(396.7 337.07) scale(1 1.02)" xlink:href="#ludzik13"/><use width="17.08" height="30.18" transform="translate(420.81 361.63) scale(1 1.02)" xlink:href="#ludzik13"/><use width="17.08" height="30.18" transform="translate(414.16 327.07) scale(1 1.02)" xlink:href="#ludzik13"/><use width="17.08" height="30.18" transform="translate(439.76 367.35) scale(1 1.02)" xlink:href="#ludzik13"/><use width="17.08" height="30.18" transform="translate(433.1 332.79) scale(1 1.02)" xlink:href="#ludzik13"/><use width="17.08" height="30.18" transform="translate(457.73 372.8) scale(1 1.02)" xlink:href="#ludzik13"/><use width="17.08" height="30.18" transform="translate(451.07 338.24) scale(1 1.02)" xlink:href="#ludzik13"/><use width="17.08" height="30.18" transform="translate(398.21 304.93) scale(1 1.02)" xlink:href="#ludzik13"/><use width="17.08" height="30.18" transform="translate(415.66 292.89) scale(1 1.02)" xlink:href="#ludzik13"/><use width="17.08" height="30.18" transform="translate(434.61 298.61) scale(1 1.02)" xlink:href="#ludzik13"/><use width="17.08" height="30.18" transform="translate(452.58 304.06) scale(1 1.02)" xlink:href="#ludzik13"/><use width="17.08" height="30.18" transform="translate(397.74 271.56) scale(1 1.02)" xlink:href="#ludzik13"/><use width="17.08" height="30.18" transform="translate(415.19 260.54) scale(1 1.02)" xlink:href="#ludzik13"/><use width="17.08" height="30.18" transform="translate(434.14 264.23) scale(1 1.02)" xlink:href="#ludzik13"/><use width="17.08" height="30.18" transform="translate(452.11 267.63) scale(1 1.02)" xlink:href="#ludzik13"/><use width="17.08" height="30.18" transform="translate(397.62 238.39) scale(1 1.02)" xlink:href="#ludzik13"/><use width="17.08" height="30.18" transform="translate(415.07 228.38) scale(1 1.02)" xlink:href="#ludzik13"/><use width="17.08" height="30.18" transform="translate(434.02 231.05) scale(1 1.02)" xlink:href="#ludzik13"/><use width="17.08" height="30.18" transform="translate(451.98 233.43) scale(1 1.02)" xlink:href="#ludzik13"/><use width="17.08" height="30.18" transform="translate(397.14 205.02) scale(1 1.02)" xlink:href="#ludzik13"/><use width="17.08" height="30.18" transform="translate(414.6 196.04) scale(1 1.02)" xlink:href="#ludzik13"/><use width="17.08" height="30.18" transform="translate(433.54 196.66) scale(1 1.02)" xlink:href="#ludzik13"/><use width="17.08" height="30.18" transform="translate(451.51 200.07) scale(1 1.02)" xlink:href="#ludzik13"/><use width="17.08" height="30.18" transform="translate(469.09 314.66) scale(1 1.02)" xlink:href="#ludzik13"/><use width="17.08" height="30.18" transform="translate(469.37 281.68) scale(1 1.02)" xlink:href="#ludzik13"/><use width="17.08" height="30.18" transform="translate(469.15 249.62) scale(1 1.02)" xlink:href="#ludzik13"/><use width="17.08" height="30.18" transform="translate(469.72 216.34) scale(1 1.02)" xlink:href="#ludzik13"/><use width="17.08" height="30.18" transform="translate(397.38 167.13) scale(1 1.02)" xlink:href="#ludzik13"/><use width="17.08" height="30.18" transform="translate(414.83 164.27) scale(1 1.02)" xlink:href="#ludzik13"/><use width="17.08" height="30.18" transform="translate(434.5 162.22) scale(1 1.02)" xlink:href="#ludzik13"/><use width="17.08" height="30.18" transform="translate(451.75 166.26) scale(1 1.02)" xlink:href="#ludzik13"/><use width="17.08" height="30.18" transform="translate(380.88 250.99) scale(1 1.02)" xlink:href="#ludzik13"/><use width="17.08" height="30.18" transform="translate(380.88 216.86) scale(1 1.02)" xlink:href="#ludzik13"/><use width="17.08" height="30.18" transform="translate(381.6 182.31) scale(1 1.02)" xlink:href="#ludzik13"/><use width="17.08" height="30.18" transform="translate(380.52 283.13) scale(1 1.02)" xlink:href="#ludzik13"/><use width="17.08" height="30.18" transform="translate(361.36 223.64) scale(1 1.02)" xlink:href="#ludzik13"/><use width="17.08" height="30.18" transform="translate(361.36 189.51) scale(1 1.02)" xlink:href="#ludzik13"/><use width="17.08" height="30.18" transform="translate(345.32 179.03) scale(1 1.02)" xlink:href="#ludzik13"/><use width="17.08" height="30.18" transform="translate(361 255.78) scale(1 1.02)" xlink:href="#ludzik13"/><use width="17.08" height="30.18" transform="translate(344.06 210.54) scale(1 1.02)" xlink:href="#ludzik13"/><use width="17.08" height="30.18" transform="translate(326.76 242.03) scale(1 1.02)" xlink:href="#ludzik13"/><use width="17.08" height="30.18" transform="translate(345.53 243.64) scale(1 1.02)" xlink:href="#ludzik13"/><use width="17.08" height="30.18" transform="translate(486.16 284.21) scale(1 1.02)" xlink:href="#ludzik13"/><use width="17.08" height="30.18" transform="translate(487.44 247.15) scale(1 1.02)" xlink:href="#ludzik13"/><use width="17.08" height="30.18" transform="translate(487.68 211.91) scale(1 1.02)" xlink:href="#ludzik13"/><use width="17.08" height="30.18" transform="translate(539.64 259.74) scale(1 1.02)" xlink:href="#ludzik13"/><use width="17.08" height="30.18" transform="translate(520.69 260.02) scale(1 1.02)" xlink:href="#ludzik13"/><use width="17.08" height="30.18" transform="translate(502.59 263.77) scale(1 1.02)" xlink:href="#ludzik13"/><use width="17.08" height="30.18" transform="translate(503.3 229.21) scale(1 1.02)" xlink:href="#ludzik13"/><use width="17.08" height="30.18" transform="translate(457.16 442.3) scale(1 1.02)" xlink:href="#ludzik_17"/><use width="17.08" height="30.18" transform="translate(485.73 317.4) scale(1 1.02)" xlink:href="#ludzik_20"/><use width="17.08" height="30.18" transform="translate(501.88 298.3) scale(1 1.02)" xlink:href="#ludzik_20"/><use width="17.08" height="30.18" transform="translate(521.37 293.08) scale(1 1.02)" xlink:href="#ludzik_20"/><use width="17.08" height="30.18" transform="translate(540.95 291.95) scale(1 1.02)" xlink:href="#ludzik_20"/><use width="17.08" height="30.18" transform="translate(559.15 280.12) scale(1 1.02)" xlink:href="#ludzik_20"/><use width="17.08" height="30.18" transform="translate(577.18 292.24) scale(1 1.02)" xlink:href="#ludzik_20"/><use width="17.08" height="30.18" transform="translate(488.77 351.96) scale(1 1.02)" xlink:href="#ludzik_20"/><use width="17.08" height="30.18" transform="translate(503.25 332.25) scale(1 1.02)" xlink:href="#ludzik_20"/><use width="17.08" height="30.18" transform="translate(523.29 329.85) scale(1 1.02)" xlink:href="#ludzik_20"/><use width="17.08" height="30.18" transform="translate(542.32 325.9) scale(1 1.02)" xlink:href="#ludzik_20"/><use width="17.08" height="30.18" transform="translate(560.53 314.08) scale(1 1.02)" xlink:href="#ludzik_20"/><use width="17.08" height="30.18" transform="translate(471.51 345.99) scale(1 1.02)" xlink:href="#ludzik_20"/><use width="17.08" height="30.18" transform="translate(491.13 384.97) scale(1 1.02)" xlink:href="#ludzik_20"/><use width="17.08" height="30.18" transform="translate(505.61 365.27) scale(1 1.02)" xlink:href="#ludzik_20"/><use width="17.08" height="30.18" transform="translate(525.65 362.87) scale(1 1.02)" xlink:href="#ludzik_20"/><use width="17.08" height="30.18" transform="translate(544.68 358.92) scale(1 1.02)" xlink:href="#ludzik_20"/><use width="17.08" height="30.18" transform="translate(562.89 347.09) scale(1 1.02)" xlink:href="#ludzik_20"/><use width="17.08" height="30.18" transform="translate(473.87 379) scale(1 1.02)" xlink:href="#ludzik_20"/><use width="17.08" height="30.18" transform="translate(493.1 417.63) scale(1 1.02)" xlink:href="#ludzik_20"/><use width="17.08" height="30.18" transform="translate(507.59 397.92) scale(1 1.02)" xlink:href="#ludzik_20"/><use width="17.08" height="30.18" transform="translate(527.63 395.52) scale(1 1.02)" xlink:href="#ludzik_20"/><use width="17.08" height="30.18" transform="translate(546.66 391.57) scale(1 1.02)" xlink:href="#ludzik_20"/><use width="17.08" height="30.18" transform="translate(564.86 379.75) scale(1 1.02)" xlink:href="#ludzik_20"/><use width="17.08" height="30.18" transform="translate(475.84 411.66) scale(1 1.02)" xlink:href="#ludzik_20"/><use width="17.08" height="30.18" transform="translate(576.66 335.12) scale(1 1.02)" xlink:href="#ludzik_20"/><use width="17.08" height="30.18" transform="translate(510.93 431.66) scale(1 1.02)" xlink:href="#ludzik_20"/><use width="17.08" height="30.18" transform="translate(531.69 427.73) scale(1 1.02)" xlink:href="#ludzik_20"/><use width="17.08" height="30.18" transform="translate(550 425.31) scale(1 1.02)" xlink:href="#ludzik_20"/><use width="17.08" height="30.18" transform="translate(568.21 413.49) scale(1 1.02)" xlink:href="#ludzik_20"/><use width="17.08" height="30.18" transform="translate(581.76 372.91) scale(1 1.02)" xlink:href="#ludzik_20"/><use width="17.08" height="30.18" transform="translate(585.28 406.56) scale(1 1.02)" xlink:href="#ludzik_20"/><use width="17.08" height="30.18" transform="translate(600.18 398.7) scale(1 1.02)" xlink:href="#ludzik_20"/><use width="17.08" height="30.18" transform="translate(551.24 457.3) scale(1 1.02)" xlink:href="#ludzik_20"/><use width="17.08" height="30.18" transform="translate(568.07 447.19) scale(1 1.02)" xlink:href="#ludzik_20"/><use width="17.08" height="30.18" transform="translate(586.15 441.82) scale(1 1.02)" xlink:href="#ludzik_20"/><use width="17.08" height="30.18" transform="translate(603.2 433.58) scale(1 1.02)" xlink:href="#ludzik_20"/><use width="17.08" height="30.18" transform="translate(531.18 459.94) scale(1 1.02)" xlink:href="#ludzik_20"/><use width="17.08" height="30.18" transform="translate(476.09 444.99) scale(1 1.02)" xlink:href="#ludzik_17"/><use width="17.08" height="30.18" transform="translate(495.31 452.1) scale(1 1.02)" xlink:href="#ludzik_17"/><use width="17.08" height="30.18" transform="translate(513.48 463.08) scale(1 1.02)" xlink:href="#ludzik_17"/><use width="17.08" height="30.18" transform="translate(456.03 475.45) scale(1 1.02)" xlink:href="#ludzik_17"/><use width="17.08" height="30.18" transform="translate(474.96 478.14) scale(1 1.02)" xlink:href="#ludzik_17"/><use width="17.08" height="30.18" transform="translate(494.18 485.25) scale(1 1.02)" xlink:href="#ludzik_17"/><use width="17.08" height="30.18" transform="translate(512.35 496.23) scale(1 1.02)" xlink:href="#ludzik_17"/><use width="17.08" height="30.18" transform="translate(457.87 509.1) scale(1 1.02)" xlink:href="#ludzik_17"/><use width="17.08" height="30.18" transform="translate(474.96 512.51) scale(1 1.02)" xlink:href="#ludzik_17"/><use width="17.08" height="30.18" transform="translate(494.18 519.62) scale(1 1.02)" xlink:href="#ludzik_17"/><use width="17.08" height="30.18" transform="translate(512.35 530.6) scale(1 1.02)" xlink:href="#ludzik_17"/><use width="17.08" height="30.18" transform="translate(440.1 465.56) scale(1 1.02)" xlink:href="#ludzik_17"/><use width="17.08" height="30.18" transform="translate(439.08 501.98) scale(1 1.02)" xlink:href="#ludzik_17"/><use width="17.08" height="30.18" transform="translate(444.34 536.35) scale(1 1.02)" xlink:href="#ludzik_17"/><use width="17.08" height="30.18" transform="translate(460.82 544.41) scale(1 1.02)" xlink:href="#ludzik_17"/><use width="17.08" height="30.18" transform="translate(477.91 547.81) scale(1 1.02)" xlink:href="#ludzik_17"/><use width="17.08" height="30.18" transform="translate(494.98 555.68) scale(1 1.02)" xlink:href="#ludzik_17"/><use width="17.08" height="30.18" transform="translate(511.14 566.66) scale(1 1.02)" xlink:href="#ludzik_17"/><use width="17.08" height="30.18" transform="translate(527.11 572.21) scale(1 1.02)" xlink:href="#ludzik_17"/><use width="17.08" height="30.18" transform="translate(531.83 491.6) scale(1 1.02)" xlink:href="#ludzik_17"/><use width="17.08" height="30.18" transform="translate(527.87 524.36) scale(1 1.02)" xlink:href="#ludzik_17"/><use width="17.08" height="30.18" transform="translate(549.41 489.84) scale(1 1.02)" xlink:href="#ludzik_17"/><use width="17.08" height="30.18" transform="translate(311.46 126.97) scale(1 1.02)" xlink:href="#ludzik_21"/><use width="17.08" height="30.18" transform="translate(327.15 107.25) scale(1 1.02)" xlink:href="#ludzik_21"/><use width="17.08" height="30.18" transform="translate(327.57 143.12) scale(1 1.02)" xlink:href="#ludzik_21"/><use width="17.08" height="30.18" transform="translate(323.83 72.43) scale(1 1.02)" xlink:href="#ludzik_21"/><use width="17.08" height="30.18" transform="translate(346.25 110.74) scale(1 1.02)" xlink:href="#ludzik_21"/><use width="17.08" height="30.18" transform="translate(347.41 145.81) scale(1 1.02)" xlink:href="#ludzik_21"/><use width="17.08" height="30.18" transform="translate(343.88 77.86) scale(1 1.02)" xlink:href="#ludzik_21"/><use width="17.08" height="30.18" transform="translate(343.88 45.41) scale(1 1.02)" xlink:href="#ludzik_21"/><use width="17.08" height="30.18" transform="translate(363.55 116.83) scale(1 1.02)" xlink:href="#ludzik_21"/><use width="17.08" height="30.18" transform="translate(364.71 151.9) scale(1 1.02)" xlink:href="#ludzik_21"/><use width="17.08" height="30.18" transform="translate(362.94 82.05) scale(1 1.02)" xlink:href="#ludzik_21"/><use width="17.08" height="30.18" transform="translate(361.96 47.96) scale(1 1.02)" xlink:href="#ludzik_21"/><use width="17.08" height="30.18" transform="translate(382.2 114.74) scale(1 1.02)" xlink:href="#ludzik_21"/><use width="17.08" height="30.18" transform="translate(381.87 147.14) scale(1 1.02)" xlink:href="#ludzik_21"/><use width="17.08" height="30.18" transform="translate(381.16 80.78) scale(1 1.02)" xlink:href="#ludzik_21"/><use width="17.08" height="30.18" transform="translate(382.2 48.01) scale(1 1.02)" xlink:href="#ludzik_21"/><use width="17.08" height="30.18" transform="translate(398.33 129.57) scale(1 1.02)" xlink:href="#ludzik_21"/><use width="17.08" height="30.18" transform="translate(399.25 53.65) scale(1 1.02)" xlink:href="#ludzik_21"/><use width="17.08" height="30.18" transform="translate(416.39 130.54) scale(1 1.02)" xlink:href="#ludzik_21"/><use width="17.08" height="30.18" transform="translate(398.93 89.99) scale(1 1.02)" xlink:href="#ludzik_21"/><use width="17.08" height="30.18" transform="translate(416.38 97.22) scale(1 1.02)" xlink:href="#ludzik_21"/><use width="17.08" height="30.18" transform="translate(417.08 60.01) scale(1 1.02)" xlink:href="#ludzik_21"/><use width="17.08" height="30.18" transform="translate(431.89 52.06) scale(1 1.02)" xlink:href="#ludzik_21"/><use width="17.08" height="30.18" transform="translate(432.6 123.92) scale(1 1.02)" xlink:href="#ludzik_21"/><use width="17.08" height="30.18" transform="translate(433.07 89.63) scale(1 1.02)" xlink:href="#ludzik_21"/><use width="17.08" height="30.18" transform="translate(449.71 126.03) scale(1 1.02)" xlink:href="#ludzik_21"/><use width="17.08" height="30.18" transform="translate(449.7 92.71) scale(1 1.02)" xlink:href="#ludzik_21"/><use width="17.08" height="30.18" transform="translate(450.4 55.5) scale(1 1.02)" xlink:href="#ludzik_21"/><use width="17.08" height="30.18" transform="translate(469.38 54.13) scale(1 1.02)" xlink:href="#ludzik_21"/><use width="17.08" height="30.18" transform="translate(467.11 119.04) scale(1 1.02)" xlink:href="#ludzik_21"/><use width="17.08" height="30.18" transform="translate(466.39 86.59) scale(1 1.02)" xlink:href="#ludzik_21"/><use width="17.08" height="30.18" transform="translate(501.17 55.46) scale(1 1.02)" xlink:href="#ludzik_21"/><use width="17.08" height="30.18" transform="translate(483.41 102.1) scale(1 1.02)" xlink:href="#ludzik_21"/><use width="17.08" height="30.18" transform="translate(486.44 63.19) scale(1 1.02)" xlink:href="#ludzik_21"/><use width="17.08" height="30.18" transform="translate(496.59 95.35) scale(1 1.02)" xlink:href="#ludzik_21"/><use width="17.08" height="30.18" transform="translate(511.84 84.88) scale(1 1.02)" xlink:href="#ludzik_21"/><use width="17.08" height="30.18" transform="translate(466.77 150.08) scale(1 1.02)" xlink:href="#ludzik11"/><use width="17.08" height="30.18" transform="translate(471.69 182.53) scale(1 1.02)" xlink:href="#ludzik11"/><use width="17.08" height="30.18" transform="translate(482.23 137.31) scale(1 1.02)" xlink:href="#ludzik11"/><use width="17.08" height="30.18" transform="translate(487.15 169.76) scale(1 1.02)" xlink:href="#ludzik11"/><use width="17.08" height="30.18" transform="translate(502.54 194.51) scale(1 1.02)" xlink:href="#ludzik11"/><use width="17.08" height="30.18" transform="translate(497.26 128.74) scale(1 1.02)" xlink:href="#ludzik11"/><use width="17.08" height="30.18" transform="translate(502.18 161.19) scale(1 1.02)" xlink:href="#ludzik11"/><use width="17.08" height="30.18" transform="translate(518.03 184.22) scale(1 1.02)" xlink:href="#ludzik11"/><use width="17.08" height="30.18" transform="translate(512.75 118.45) scale(1 1.02)" xlink:href="#ludzik11"/><use width="17.08" height="30.18" transform="translate(517.67 150.9) scale(1 1.02)" xlink:href="#ludzik11"/><use width="17.08" height="30.18" transform="translate(519.98 220.42) scale(1 1.02)" xlink:href="#ludzik11"/><use width="17.08" height="30.18" transform="translate(535.45 190.41) scale(1 1.02)" xlink:href="#ludzik11"/><use width="17.08" height="30.18" transform="translate(530.17 124.64) scale(1 1.02)" xlink:href="#ludzik11"/><use width="17.08" height="30.18" transform="translate(535.09 157.09) scale(1 1.02)" xlink:href="#ludzik11"/><use width="17.08" height="30.18" transform="translate(537.4 226.61) scale(1 1.02)" xlink:href="#ludzik11"/><use width="17.08" height="30.18" transform="translate(554.89 202.67) scale(1 1.02)" xlink:href="#ludzik11"/><use width="17.08" height="30.18" transform="translate(549.6 136.9) scale(1 1.02)" xlink:href="#ludzik11"/><use width="17.08" height="30.18" transform="translate(554.53 169.35) scale(1 1.02)" xlink:href="#ludzik11"/><use width="17.08" height="30.18" transform="translate(556.83 238.87) scale(1 1.02)" xlink:href="#ludzik11"/><use width="17.08" height="30.18" transform="translate(570.74 183.57) scale(1 1.02)" xlink:href="#ludzik11"/><use width="17.08" height="30.18" transform="translate(565.45 117.8) scale(1 1.02)" xlink:href="#ludzik11"/><use width="17.08" height="30.18" transform="translate(570.37 150.25) scale(1 1.02)" xlink:href="#ludzik11"/><use width="17.08" height="30.18" transform="translate(572.68 219.77) scale(1 1.02)" xlink:href="#ludzik11"/><use width="17.08" height="30.18" transform="translate(585.5 172.1) scale(1 1.02)" xlink:href="#ludzik11"/><use width="17.08" height="30.18" transform="translate(585.14 138.78) scale(1 1.02)" xlink:href="#ludzik11"/><use width="17.08" height="30.18" transform="translate(587.45 208.3) scale(1 1.02)" xlink:href="#ludzik11"/><use width="17.08" height="30.18" transform="translate(529.18 89.32) scale(1 1.02)" xlink:href="#ludzik11"/><use width="17.08" height="30.18" transform="translate(548.62 101.58) scale(1 1.02)" xlink:href="#ludzik11"/><use width="17.08" height="30.18" transform="translate(564.47 82.48) scale(1 1.02)" xlink:href="#ludzik11"/><use width="17.08" height="30.18" transform="translate(522.36 55.44) scale(1 1.02)" xlink:href="#ludzik11"/><use width="17.08" height="30.18" transform="translate(541.8 67.7) scale(1 1.02)" xlink:href="#ludzik11"/></g></g></svg>